<svg width="27" height="28" viewBox="0 0 27 28" fill="none" xmlns="http://www.w3.org/2000/svg">
<g id="ant-design:stock-outlined">
<path id="vector" d="M23.8295 20.0088H3.164C3.04802 20.0088 2.95312 20.1037 2.95312 20.2197V21.6958C2.95312 21.8118 3.04802 21.9067 3.164 21.9067H23.8295C23.9454 21.9067 24.0403 21.8118 24.0403 21.6958V20.2197C24.0403 20.1037 23.9454 20.0088 23.8295 20.0088ZM4.3686 16.7087L5.41506 17.7499C5.49677 17.8316 5.6312 17.8316 5.71291 17.7499L11.8994 11.5845L14.472 14.1492C14.6305 14.3063 14.8446 14.3944 15.0677 14.3944C15.2908 14.3944 15.5049 14.3063 15.6634 14.1492L22.6275 7.21153C22.7092 7.12981 22.7092 6.99538 22.6275 6.91367L21.581 5.86985C21.5414 5.83061 21.4879 5.80859 21.4321 5.80859C21.3763 5.80859 21.3228 5.83061 21.2832 5.86985L15.0704 12.0642L12.4951 9.49949C12.3366 9.34245 12.1225 9.25435 11.8994 9.25435C11.6763 9.25435 11.4622 9.34245 11.3037 9.49949L4.3686 16.4108C4.34889 16.4303 4.33323 16.4535 4.32255 16.479C4.31186 16.5046 4.30636 16.532 4.30636 16.5597C4.30636 16.5875 4.31186 16.6149 4.32255 16.6405C4.33323 16.666 4.34889 16.6892 4.3686 16.7087Z"/>
</g>
</svg>
