<svg width="16" height="16" viewBox="0 0 16 16" fill="none" xmlns="http://www.w3.org/2000/svg">
<g id="Arrow - Down 2">
<g id="Iconly/Bold/Arrow---Down-2">
<g id="Arrow---Down-2">
<path id="vector" d="M7.246 11.087C7.20733 11.0494 7.042 10.9071 6.906 10.7746C6.05067 9.99789 4.65067 7.97159 4.22333 6.91102C4.15467 6.74996 4.00933 6.34275 4 6.12518C4 5.91671 4.048 5.71797 4.14533 5.52833C4.28133 5.29193 4.49533 5.10229 4.748 4.99838C4.92333 4.93148 5.448 4.82757 5.45733 4.82757C6.03133 4.72366 6.964 4.6665 7.99467 4.6665C8.97667 4.6665 9.87133 4.72366 10.454 4.80873C10.4633 4.81848 11.1153 4.92239 11.3387 5.03604C11.7467 5.24452 12 5.65173 12 6.08751V6.12518C11.99 6.40899 11.7367 7.00584 11.7273 7.00584C11.2993 8.00925 9.968 9.9888 9.08333 10.7844C9.08333 10.7844 8.856 11.0084 8.714 11.1059C8.51 11.2578 8.25733 11.3332 8.00467 11.3332C7.72267 11.3332 7.46 11.2481 7.246 11.087Z"/>
</g>
</g>
</g>
</svg>
