<svg width="32" height="33" viewBox="0 0 32 33" fill="none" xmlns="http://www.w3.org/2000/svg">
<g id="simple-icons:convertio" clip-path="url(#clip0_105_3285)">
<path id="vector" d="M16 0.549316C7.164 0.549316 0 7.69198 0 16.5C0 25.308 7.164 32.4506 16 32.4506C24.8373 32.4506 32 25.308 32 16.5C32 7.69198 24.836 0.549316 16 0.549316ZM15.2787 6.94932C17.8253 6.77598 20.4467 7.47598 22.5213 9.52798C24.4227 11.444 25.868 14.1146 25.8387 16.6173H28.6827L22.7573 23.2346L16.8307 16.6173H19.9147C19.9133 14.3186 19.3453 12.9613 17.5413 11.1826C15.7747 9.40132 13.9853 8.36932 10.904 8.11198C12.278 7.45817 13.7613 7.06309 15.2787 6.94932ZM9.24533 9.76665L15.172 16.384H12.088C12.088 18.6826 12.656 20.04 14.4587 21.8186C16.2267 23.6 18.0147 24.6346 21.096 24.892C17.5173 26.5826 12.8027 26.756 9.48267 23.4733C7.58 21.5573 6.13333 18.8867 6.164 16.384H3.31733L9.24533 9.76665Z" fill="#5865F2"/>
</g>
<defs>
<clipPath id="clip0_105_3285">
<rect width="32" height="32" fill="white" transform="translate(0 0.5)"/>
</clipPath>
</defs>
</svg>
