<svg aria-hidden="true" style="position: absolute; width: 0; height: 0; overflow: hidden;" version="1.1" xmlns="http://www.w3.org/2000/svg" xmlns:xlink="http://www.w3.org/1999/xlink">
<defs>
<symbol id="icon-swap_horiz" viewBox="0 0 24 24">
<path d="M21 9l-3.984 3.984v-3h-7.031v-1.969h7.031v-3zM6.984 11.016v3h7.031v1.969h-7.031v3l-3.984-3.984z"></path>
</symbol>
<symbol id="icon-keyboard_return" viewBox="0 0 24 24">
<path d="M18.984 6.984h2.016v6h-15.188l3.609 3.609-1.406 1.406-6-6 6-6 1.406 1.406-3.609 3.609h13.172v-4.031z"></path>
</symbol>
<symbol id="icon-logout" viewBox="0 0 24 24">
<path d="M20.016 18.984v-13.969h-8.016v-2.016h8.016q0.797 0 1.383 0.609t0.586 1.406v13.969q0 0.797-0.586 1.406t-1.383 0.609h-8.016v-2.016h8.016zM6.984 17.016l-4.969-5.016 4.969-5.016 1.406 1.453-2.578 2.578h10.172v1.969h-10.172l2.578 2.625z"></path>
</symbol>
<symbol id="icon-notifications_none" viewBox="0 0 24 24">
<path d="M15.984 17.016v-6q0-1.922-1.078-3.211t-2.906-1.289-2.906 1.289-1.078 3.211v6h7.969zM18 15.984l2.016 2.016v0.984h-16.031v-0.984l2.016-2.016v-4.969q0-2.344 1.195-4.078t3.305-2.25v-0.703q0-0.609 0.422-1.055t1.078-0.445 1.078 0.445 0.422 1.055v0.703q2.109 0.516 3.305 2.25t1.195 4.078v4.969zM12 21.984q-0.797 0-1.406-0.586t-0.609-1.383h4.031q0 0.797-0.609 1.383t-1.406 0.586z"></path>
</symbol>
<symbol id="icon-add_shopping_cart" viewBox="0 0 24 24">
<path d="M7.172 14.766q0 0.234 0.234 0.234h11.578v2.016h-12q-0.797 0-1.383-0.609t-0.586-1.406q0-0.469 0.234-0.938l1.359-2.484-3.609-7.594h-2.016v-1.969h3.281q0.938 1.969 1.875 3.984 0.234 0.422 1.078 2.227t1.313 2.789h7.031q3.516-6.375 3.844-7.031l1.734 0.984-3.844 6.984q-0.563 1.031-1.734 1.031h-7.453l-0.891 1.641zM17.016 18q0.797 0 1.383 0.609t0.586 1.406-0.586 1.383-1.383 0.586-1.406-0.586-0.609-1.383 0.609-1.406 1.406-0.609zM6.984 18q0.797 0 1.406 0.609t0.609 1.406-0.609 1.383-1.406 0.586-1.383-0.586-0.586-1.383 0.586-1.406 1.383-0.609zM11.016 9v-3h-3v-2.016h3v-3h1.969v3h3v2.016h-3v3h-1.969z"></path>
</symbol>
<symbol id="icon-library_books" viewBox="0 0 24 24">
<path d="M18.984 6.984v-1.969h-9.984v1.969h9.984zM15 15v-2.016h-6v2.016h6zM18.984 11.016v-2.016h-9.984v2.016h9.984zM20.016 2.016q0.797 0 1.383 0.586t0.586 1.383v12q0 0.797-0.586 1.406t-1.383 0.609h-12q-0.797 0-1.406-0.609t-0.609-1.406v-12q0-0.797 0.609-1.383t1.406-0.586h12zM3.984 6v14.016h14.016v1.969h-14.016q-0.797 0-1.383-0.586t-0.586-1.383v-14.016h1.969z"></path>
</symbol>
<symbol id="icon-grid_view" viewBox="0 0 24 24">
<path d="M18.984 18.984v-3.984h-3.984v3.984h3.984zM12.984 12.984h8.016v8.016h-8.016v-8.016zM18.984 9v-3.984h-3.984v3.984h3.984zM12.984 3h8.016v8.016h-8.016v-8.016zM9 18.984v-3.984h-3.984v3.984h3.984zM3 12.984h8.016v8.016h-8.016v-8.016zM9 9v-3.984h-3.984v3.984h3.984zM3 3h8.016v8.016h-8.016v-8.016z"></path>
</symbol>
<symbol id="icon-credit-card" viewBox="0 0 24 24">
<path d="M17 7h-11c-1.654 0-3 1.346-3 3v7c0 1.654 1.346 3 3 3h11c1.654 0 3-1.346 3-3v-7c0-1.654-1.346-3-3-3zM18 17c0 0.552-0.448 1-1 1h-11c-0.552 0-1-0.448-1-1v-4h13v4zM18 11h-13v-1c0-0.552 0.448-1 1-1h11c0.552 0 1 0.448 1 1v1z"></path>
<path d="M14 16h2c0.276 0 0.5-0.224 0.5-0.5s-0.224-0.5-0.5-0.5h-2c-0.276 0-0.5 0.224-0.5 0.5s0.224 0.5 0.5 0.5z"></path>
</symbol>
<symbol id="icon-settings" viewBox="0 0 24 24">
<path d="M16 12c0-1.104-0.449-2.106-1.172-2.828s-1.724-1.172-2.828-1.172-2.106 0.449-2.828 1.172-1.172 1.724-1.172 2.828 0.449 2.106 1.172 2.828 1.724 1.172 2.828 1.172 2.106-0.449 2.828-1.172 1.172-1.724 1.172-2.828zM14 12c0 0.553-0.223 1.051-0.586 1.414s-0.861 0.586-1.414 0.586-1.051-0.223-1.414-0.586-0.586-0.861-0.586-1.414 0.223-1.051 0.586-1.414 0.861-0.586 1.414-0.586 1.051 0.223 1.414 0.586 0.586 0.861 0.586 1.414zM20.315 15.404c0.046-0.105 0.112-0.191 0.192-0.257 0.112-0.092 0.251-0.146 0.403-0.147h0.090c0.828 0 1.58-0.337 2.121-0.879s0.879-1.293 0.879-2.121-0.337-1.58-0.879-2.121-1.293-0.879-2.121-0.879h-0.159c-0.11-0.001-0.215-0.028-0.308-0.076-0.127-0.066-0.23-0.172-0.292-0.312-0.003-0.029-0.004-0.059-0.004-0.089-0.024-0.055-0.040-0.111-0.049-0.168 0.020-0.334 0.077-0.454 0.168-0.547l0.062-0.062c0.585-0.586 0.878-1.356 0.877-2.122s-0.294-1.536-0.881-2.122c-0.586-0.585-1.356-0.878-2.122-0.877s-1.536 0.294-2.12 0.879l-0.046 0.046c-0.083 0.080-0.183 0.136-0.288 0.166-0.14 0.039-0.291 0.032-0.438-0.033-0.101-0.044-0.187-0.11-0.253-0.19-0.092-0.112-0.146-0.251-0.147-0.403v-0.090c0-0.828-0.337-1.58-0.879-2.121s-1.293-0.879-2.121-0.879-1.58 0.337-2.121 0.879-0.879 1.293-0.879 2.121v0.159c-0.001 0.11-0.028 0.215-0.076 0.308-0.066 0.127-0.172 0.23-0.312 0.292-0.029 0.003-0.059 0.004-0.089 0.004-0.055 0.024-0.111 0.040-0.168 0.049-0.335-0.021-0.455-0.078-0.548-0.169l-0.062-0.062c-0.586-0.585-1.355-0.878-2.122-0.878s-1.535 0.294-2.122 0.882c-0.585 0.586-0.878 1.355-0.878 2.122s0.294 1.536 0.879 2.12l0.048 0.047c0.080 0.083 0.136 0.183 0.166 0.288 0.039 0.14 0.032 0.291-0.031 0.434-0.006 0.016-0.013 0.034-0.021 0.052-0.041 0.109-0.108 0.203-0.191 0.275-0.11 0.095-0.25 0.153-0.383 0.156h-0.090c-0.828 0-1.58 0.337-2.121 0.879s-0.879 1.294-0.879 2.122 0.337 1.58 0.879 2.121 1.293 0.879 2.121 0.879h0.159c0.11 0.001 0.215 0.028 0.308 0.076 0.128 0.067 0.233 0.174 0.296 0.321 0.024 0.055 0.040 0.111 0.049 0.168-0.020 0.334-0.077 0.454-0.168 0.547l-0.062 0.062c-0.585 0.586-0.878 1.356-0.877 2.122s0.294 1.536 0.881 2.122c0.586 0.585 1.356 0.878 2.122 0.877s1.536-0.294 2.12-0.879l0.047-0.048c0.083-0.080 0.183-0.136 0.288-0.166 0.14-0.039 0.291-0.032 0.434 0.031 0.016 0.006 0.034 0.013 0.052 0.021 0.109 0.041 0.203 0.108 0.275 0.191 0.095 0.11 0.153 0.25 0.156 0.383v0.092c0 0.828 0.337 1.58 0.879 2.121s1.293 0.879 2.121 0.879 1.58-0.337 2.121-0.879 0.879-1.293 0.879-2.121v-0.159c0.001-0.11 0.028-0.215 0.076-0.308 0.067-0.128 0.174-0.233 0.321-0.296 0.055-0.024 0.111-0.040 0.168-0.049 0.334 0.020 0.454 0.077 0.547 0.168l0.062 0.062c0.586 0.585 1.356 0.878 2.122 0.877s1.536-0.294 2.122-0.881c0.585-0.586 0.878-1.356 0.877-2.122s-0.294-1.536-0.879-2.12l-0.048-0.047c-0.080-0.083-0.136-0.183-0.166-0.288-0.039-0.14-0.032-0.291 0.031-0.434zM18.396 9.302c-0.012-0.201-0.038-0.297-0.076-0.382v0.080c0 0.043 0.003 0.084 0.008 0.125 0.021 0.060 0.043 0.119 0.068 0.177 0.004 0.090 0.005 0.091 0.005 0.092 0.249 0.581 0.684 1.030 1.208 1.303 0.371 0.193 0.785 0.298 1.211 0.303h0.18c0.276 0 0.525 0.111 0.707 0.293s0.293 0.431 0.293 0.707-0.111 0.525-0.293 0.707-0.431 0.293-0.707 0.293h-0.090c-0.637 0.003-1.22 0.228-1.675 0.603-0.323 0.266-0.581 0.607-0.75 0.993-0.257 0.582-0.288 1.21-0.127 1.782 0.119 0.423 0.341 0.814 0.652 1.136l0.072 0.073c0.196 0.196 0.294 0.45 0.294 0.707s-0.097 0.512-0.292 0.707c-0.197 0.197-0.451 0.295-0.709 0.295s-0.512-0.097-0.707-0.292l-0.061-0.061c-0.463-0.453-1.040-0.702-1.632-0.752-0.437-0.037-0.882 0.034-1.293 0.212-0.578 0.248-1.027 0.683-1.3 1.206-0.193 0.371-0.298 0.785-0.303 1.211v0.181c0 0.276-0.111 0.525-0.293 0.707s-0.43 0.292-0.706 0.292-0.525-0.111-0.707-0.293-0.293-0.431-0.293-0.707v-0.090c-0.015-0.66-0.255-1.242-0.644-1.692-0.284-0.328-0.646-0.585-1.058-0.744-0.575-0.247-1.193-0.274-1.756-0.116-0.423 0.119-0.814 0.341-1.136 0.652l-0.073 0.072c-0.196 0.196-0.45 0.294-0.707 0.294s-0.512-0.097-0.707-0.292c-0.197-0.197-0.295-0.451-0.295-0.709s0.097-0.512 0.292-0.707l0.061-0.061c0.453-0.463 0.702-1.040 0.752-1.632 0.037-0.437-0.034-0.882-0.212-1.293-0.248-0.578-0.683-1.027-1.206-1.3-0.371-0.193-0.785-0.298-1.211-0.303l-0.18 0.001c-0.276 0-0.525-0.111-0.707-0.293s-0.293-0.431-0.293-0.707 0.111-0.525 0.293-0.707 0.431-0.293 0.707-0.293h0.090c0.66-0.015 1.242-0.255 1.692-0.644 0.328-0.284 0.585-0.646 0.744-1.058 0.247-0.575 0.274-1.193 0.116-1.756-0.119-0.423-0.341-0.814-0.652-1.136l-0.073-0.073c-0.196-0.196-0.294-0.45-0.294-0.707s0.097-0.512 0.292-0.707c0.197-0.197 0.451-0.295 0.709-0.295s0.512 0.097 0.707 0.292l0.061 0.061c0.463 0.453 1.040 0.702 1.632 0.752 0.37 0.032 0.745-0.014 1.101-0.137 0.096-0.012 0.186-0.036 0.266-0.072-0.031 0.001-0.061 0.003-0.089 0.004-0.201 0.012-0.297 0.038-0.382 0.076h0.080c0.043 0 0.084-0.003 0.125-0.008 0.060-0.021 0.119-0.043 0.177-0.068 0.090-0.004 0.091-0.005 0.092-0.005 0.581-0.249 1.030-0.684 1.303-1.208 0.193-0.37 0.298-0.785 0.303-1.21v-0.181c0-0.276 0.111-0.525 0.293-0.707s0.431-0.293 0.707-0.293 0.525 0.111 0.707 0.293 0.293 0.431 0.293 0.707v0.090c0.003 0.637 0.228 1.22 0.603 1.675 0.266 0.323 0.607 0.581 0.996 0.751 0.578 0.255 1.206 0.286 1.778 0.125 0.423-0.119 0.814-0.341 1.136-0.652l0.073-0.072c0.196-0.196 0.45-0.294 0.707-0.294s0.512 0.097 0.707 0.292c0.197 0.197 0.295 0.451 0.295 0.709s-0.097 0.512-0.292 0.707l-0.061 0.061c-0.453 0.463-0.702 1.040-0.752 1.632-0.032 0.37 0.014 0.745 0.137 1.101 0.012 0.095 0.037 0.185 0.072 0.266-0.001-0.032-0.002-0.062-0.004-0.089z"></path>
</symbol>
<symbol id="icon-help" viewBox="0 0 24 24">
<path d="M15.657 11.1q1.125-1.125 1.125-2.701 0-1.969-1.407-3.376t-3.376-1.407-3.376 1.407-1.407 3.376h2.363q0-0.957 0.731-1.688t1.688-0.731 1.688 0.731 0.731 1.688-0.731 1.688l-1.463 1.519q-1.407 1.519-1.407 3.376v0.619h2.363q0-1.857 1.407-3.376zM13.182 20.383v-2.363h-2.363v2.363h2.363zM12 0.016q4.951 0 8.468 3.517t3.517 8.468-3.517 8.468-8.468 3.517-8.468-3.517-3.517-8.468 3.517-8.468 8.468-3.517z"></path>
</symbol>
<symbol id="icon-wallet" viewBox="0 0 24 24">
<path d="M12 15c0-0.828 0.672-1.5 1.5-1.5s1.5 0.672 1.5 1.5c0 0.828-0.672 1.5-1.5 1.5s-1.5-0.672-1.5-1.5zM21.751 9.75c-0.001 0-0.001 0 0 0l-0.001-4.5v-2.25c0-1.243-1.008-2.25-2.25-2.25h-15.375c-2.275 0-4.125 1.851-4.125 4.125v15c0 2.274 1.85 4.125 4.125 4.125h13.5c2.274 0 4.125-1.851 4.125-4.125v-1.125c0 0 0 0 0.001 0 2.999-2.251 2.999-6.749 0-9zM4.125 2.25h15.375c0.413 0 0.75 0.336 0.75 0.75v4.638c-0.236-0.084-0.486-0.138-0.75-0.138h-0.001v-3.75c0-0.415-0.336-0.75-0.75-0.75h-15.75c-0.414 0-0.75 0.335-0.75 0.75v2.957c-0.463-0.473-0.749-1.118-0.749-1.832 0-1.45 1.175-2.625 2.625-2.625zM18.749 4.5h-15.75v-0.75h15.75v0.75zM18.749 5.25v0.75h-15.75v-0.75h15.75zM18.749 6.75v0.75h-14.624c-0.405 0-0.783-0.099-1.125-0.262v-0.488h15.749zM20.25 19.875c0 1.45-1.175 2.625-2.625 2.625h-13.5c-1.45 0-2.625-1.175-2.625-2.625v-11.821c0.713 0.59 1.628 0.946 2.625 0.946h15.375c0.413 0 0.75 0.336 0.75 0.75v1.5h-6.75c-2.071 0-3.75 1.678-3.75 3.75s1.679 3.75 3.75 3.75h6.75v1.125zM21.208 17.25h-7.708c-1.24 0-2.25-1.009-2.25-2.25s1.009-2.25 2.25-2.25h6.75c0.463-0.006 0.922-0.23 1.201-0.603 0.078-0.105 0.139-0.223 0.188-0.346 0.007-0.017 0.019-0.029 0.025-0.046 0.539 0.707 0.836 1.574 0.836 2.495 0 1.154-0.466 2.224-1.292 3z"></path>
</symbol>
<symbol id="icon-search" viewBox="0 0 24 24">
<path d="M15.48 17.184c-1.608 1.259-3.66 2.019-5.889 2.019-5.302 0-9.6-4.298-9.6-9.6s4.298-9.6 9.6-9.6c5.302 0 9.6 4.298 9.6 9.6 0 2.229-0.76 4.281-2.035 5.91l0.016-0.021 6.42 6.396-1.704 1.704-6.396-6.408zM9.6 16.8c3.976 0 7.2-3.224 7.2-7.2s-3.224-7.2-7.2-7.2v0c-3.976 0-7.2 3.224-7.2 7.2s3.224 7.2 7.2 7.2v0z"></path>
</symbol>
</defs>
</svg>
