<svg width="21" height="21" viewBox="0 0 21 21" fill="none" xmlns="http://www.w3.org/2000/svg">
<g id="twemoji:flag-us-outlying-islands" clip-path="url(#clip0_105_3275)">
<path id="Vector" d="M20.1917 4.38894C19.8067 3.72728 19.0983 3.27783 18.2778 3.27783H10.5V4.38894H20.1917ZM0.5 14.3889H20.5V15.5001H0.5V14.3889ZM10.5 9.9445H20.5V11.0556H10.5V9.9445ZM10.5 7.72228H20.5V8.83339H10.5V7.72228ZM0.5 12.1667H20.5V13.2778H0.5V12.1667ZM2.72222 17.7223H18.2778C19.0983 17.7223 19.8067 17.2728 20.1917 16.6112H0.808333C1.19333 17.2728 1.90167 17.7223 2.72222 17.7223ZM10.5 5.50005H20.5V6.61117H10.5V5.50005Z" fill="#B22334"/>
<path id="Vector_2" d="M0.537778 15.877C0.547222 15.9287 0.557778 15.9803 0.570556 16.0309C0.585 16.087 0.602778 16.1409 0.621667 16.1953C0.671111 16.3392 0.731111 16.4781 0.806667 16.6081L0.808333 16.6109H20.1917L20.1928 16.6087C20.2673 16.4777 20.3291 16.3398 20.3772 16.197C20.4138 16.0927 20.442 15.9857 20.4617 15.877C20.4844 15.7548 20.5 15.6292 20.5 15.4998H0.5C0.5 15.6292 0.515556 15.7542 0.537778 15.877ZM0.5 13.2776H20.5V14.3887H0.5V13.2776ZM0.5 11.0553V12.1665H20.5V11.0553H10.5H0.5ZM10.5 8.83312H20.5V9.94423H10.5V8.83312ZM10.5 6.61089H20.5V7.72201H10.5V6.61089ZM0.571111 4.96867C0.585 4.91201 0.604444 4.85812 0.622222 4.80367C0.602929 4.85795 0.585878 4.91299 0.571111 4.96867ZM10.5 5.49978H20.5C20.5 5.37034 20.4844 5.24478 20.4617 5.12201C20.4422 5.01318 20.4138 4.90614 20.3767 4.80201C20.3285 4.65857 20.2666 4.52014 20.1917 4.38867H10.5V5.49978Z" fill="#EEEEEE"/>
<path id="Vector_3" d="M10.5 3.27783H2.72222C2.13285 3.27783 1.56762 3.51196 1.15087 3.92871C0.734126 4.34545 0.5 4.91068 0.5 5.50005L0.5 11.0556H10.5V3.27783Z" fill="#3C3B6E"/>
<path id="Vector_4" d="M1.61328 4.79201L1.95661 5.04145L1.8255 5.44423L2.16828 5.19534L2.51161 5.44423L2.3805 5.04145L2.72384 4.79201H2.29939L2.16828 4.38867L2.03773 4.79201H1.61328ZM2.72439 5.90312L3.06773 6.15256L2.93661 6.55534L3.27939 6.30645L3.62273 6.55534L3.49161 6.15256L3.83495 5.90312H3.4105L3.27939 5.49978L3.14884 5.90312H2.72439ZM4.94661 5.90312L5.28995 6.15256L5.15884 6.55534L5.50161 6.30645L5.84495 6.55534L5.71384 6.15256L6.05717 5.90312H5.63273L5.50161 5.49978L5.37106 5.90312H4.94661ZM7.16884 5.90312L7.51217 6.15256L7.38106 6.55534L7.72384 6.30645L8.06717 6.55534L7.93606 6.15256L8.27939 5.90312H7.85495L7.72384 5.49978L7.59328 5.90312H7.16884ZM2.72439 8.12534L3.06773 8.37478L2.93661 8.77756L3.27939 8.52867L3.62273 8.77756L3.49161 8.37478L3.83495 8.12534H3.4105L3.27939 7.72201L3.14884 8.12534H2.72439ZM4.94661 8.12534L5.28995 8.37478L5.15884 8.77756L5.50161 8.52867L5.84495 8.77756L5.71384 8.37478L6.05717 8.12534H5.63273L5.50161 7.72201L5.37106 8.12534H4.94661ZM7.16884 8.12534L7.51217 8.37478L7.38106 8.77756L7.72384 8.52867L8.06717 8.77756L7.93606 8.37478L8.27939 8.12534H7.85495L7.72384 7.72201L7.59328 8.12534H7.16884ZM3.8355 4.79201L4.17884 5.04145L4.04773 5.44423L4.3905 5.19534L4.73384 5.44423L4.60273 5.04145L4.94606 4.79201H4.52161L4.3905 4.38867L4.25995 4.79201H3.8355ZM6.05773 4.79201L6.40106 5.04145L6.26995 5.44423L6.61273 5.19534L6.95606 5.44423L6.82495 5.04145L7.16828 4.79201H6.74384L6.61273 4.38867L6.48217 4.79201H6.05773ZM8.27995 4.79201L8.62328 5.04145L8.49217 5.44423L8.83495 5.19534L9.17828 5.44423L9.04717 5.04145L9.3905 4.79201H8.96606L8.83495 4.38867L8.70439 4.79201H8.27995ZM1.61328 7.01423L1.95661 7.26367L1.8255 7.66645L2.16828 7.41756L2.51161 7.66645L2.3805 7.26367L2.72384 7.01423H2.29939L2.16828 6.61089L2.03773 7.01423H1.61328ZM4.04773 7.66645L4.3905 7.41756L4.73384 7.66645L4.60273 7.26367L4.94606 7.01423H4.52161L4.3905 6.61089L4.25995 7.01423H3.8355L4.17884 7.26367L4.04773 7.66645ZM6.05773 7.01423L6.40106 7.26367L6.26995 7.66645L6.61273 7.41756L6.95606 7.66645L6.82495 7.26367L7.16828 7.01423H6.74384L6.61273 6.61089L6.48217 7.01423H6.05773ZM8.27995 7.01423L8.62328 7.26367L8.49217 7.66645L8.83495 7.41756L9.17828 7.66645L9.04717 7.26367L9.3905 7.01423H8.96606L8.83495 6.61089L8.70439 7.01423H8.27995ZM1.61328 9.23645L1.95661 9.48589L1.8255 9.88867L2.16828 9.63978L2.51161 9.88867L2.3805 9.48589L2.72384 9.23645H2.29939L2.16828 8.83312L2.03773 9.23645H1.61328ZM4.04773 9.88867L4.3905 9.63978L4.73384 9.88867L4.60273 9.48589L4.94606 9.23645H4.52161L4.3905 8.83312L4.25995 9.23645H3.8355L4.17884 9.48589L4.04773 9.88867ZM6.05773 9.23645L6.40106 9.48589L6.26995 9.88867L6.61273 9.63978L6.95606 9.88867L6.82495 9.48589L7.16828 9.23645H6.74384L6.61273 8.83312L6.48217 9.23645H6.05773ZM8.27995 9.23645L8.62328 9.48589L8.49217 9.88867L8.83495 9.63978L9.17828 9.88867L9.04717 9.48589L9.3905 9.23645H8.96606L8.83495 8.83312L8.70439 9.23645H8.27995Z" fill="white"/>
</g>
<defs>
<clipPath id="clip0_105_3275">
<rect width="20" height="20" fill="white" transform="translate(0.5 0.5)"/>
</clipPath>
</defs>
</svg>
