<svg width="100" height="100" viewBox="0 0 100 100" fill="none" xmlns="http://www.w3.org/2000/svg">
<g id="twemoji:flag-nigeria" clip-path="url(#clip0_105_3220)">
<path id="Vector" d="M2.22222 2.77783C1.63285 2.77783 1.06762 3.01196 0.650874 3.42871C0.234126 3.84545 0 4.41068 0 5.00005L0 15.0001C0 15.5894 0.234126 16.1547 0.650874 16.5714C1.06762 16.9882 1.63285 17.2223 2.22222 17.2223H6.66667V2.77783H2.22222Z" fill="#009A49"/>
<path id="Vector_2" d="M6.66797 2.77783H13.3346V17.2223H6.66797V2.77783Z" fill="#EEEEEE"/>
<path id="Vector_3" d="M17.7765 2.77783H13.332V17.2223H17.7765C18.3658 17.2223 18.9311 16.9882 19.3478 16.5714C19.7646 16.1547 19.9987 15.5894 19.9987 15.0001V5.00005C19.9987 4.41068 19.7646 3.84545 19.3478 3.42871C18.9311 3.01196 18.3658 2.77783 17.7765 2.77783Z" fill="#009A49"/>
</g>
<defs>
<clipPath id="clip0_105_3220">
<rect width="100" height="100" fill="white"/>
</clipPath>
</defs>
</svg>
