<svg width="32" height="32" viewBox="0 0 32 32" fill="none" xmlns="http://www.w3.org/2000/svg">
<g id="twemoji:waving-hand" clip-path="url(#clip0_105_3205)">
<path id="Vector" d="M4.32101 8.13047C5.15656 7.54647 6.41612 7.65846 7.16634 8.27802L6.3059 7.02735C5.61345 6.0398 5.86145 4.97135 6.8499 4.27802C7.83834 3.58735 10.6392 5.44424 10.6392 5.44424C9.94056 4.44691 10.0712 3.18291 11.0686 2.48335C11.5481 2.14832 12.1409 2.01733 12.717 2.11916C13.293 2.221 13.805 2.54733 14.1406 3.02646L23.4028 16.1109L22.2223 27.5554L12.3708 23.9625L3.7779 11.222C3.61034 10.9834 3.49146 10.7142 3.42807 10.4296C3.36467 10.145 3.35801 9.85078 3.40845 9.56363C3.45889 9.27649 3.56546 9.00211 3.72204 8.7562C3.87863 8.51028 4.08216 8.29765 4.32101 8.13047Z" fill="#EF9645"/>
<path id="Vector_2" d="M2.39509 15.41C2.39509 15.41 1.38887 13.9433 2.85643 12.938C4.3222 11.9327 5.32754 13.3985 5.32754 13.3985L9.99509 20.2056C10.156 19.9371 10.332 19.6722 10.5284 19.4109L4.0502 9.96468C4.0502 9.96468 3.04487 8.4989 4.51154 7.49357C5.97731 6.48823 6.98265 7.95401 6.98265 7.95401L13.076 16.8402C13.3026 16.6553 13.5346 16.4696 13.7738 16.2873L6.70976 5.98423C6.70976 5.98423 5.70443 4.51846 7.17109 3.51312C8.63687 2.50779 9.6422 3.97357 9.6422 3.97357L16.7062 14.2749C16.9658 14.1158 17.2226 13.978 17.4804 13.8322L10.8778 4.20379C10.8778 4.20379 9.87243 2.73801 11.3382 1.73268C12.804 0.727345 13.8093 2.19312 13.8093 2.19312L20.7906 12.3745L21.852 13.9229C17.4538 16.9398 17.0351 22.6153 19.548 26.2802C20.0502 27.0136 20.7835 26.5113 20.7835 26.5113C17.7675 22.1122 18.6884 17.1691 23.0875 14.1531L21.7906 7.66246C21.7906 7.66246 21.3062 5.95223 23.0155 5.4669C24.7258 4.98246 25.2111 6.69268 25.2111 6.69268L26.7089 11.1407C27.3026 12.9042 27.9346 14.6616 28.7711 16.3238C31.1329 21.0171 29.7222 26.85 25.2689 29.9051C20.4111 33.2358 13.7702 31.9976 10.4386 27.1407L2.39509 15.41Z" fill="#FFDC5D"/>
<g id="Group">
<path id="Vector_3" d="M10.6684 28.4817C7.11285 28.4817 3.51997 24.8888 3.51997 21.3332C3.51997 20.8417 3.15997 20.4443 2.66841 20.4443C2.17685 20.4443 1.74219 20.8417 1.74219 21.3332C1.74219 26.6666 5.33508 30.2594 10.6684 30.2594C11.16 30.2594 11.5573 29.8248 11.5573 29.3332C11.5573 28.8417 11.16 28.4817 10.6684 28.4817Z" fill="#5DADEC"/>
<path id="Vector_4" d="M6.22222 30.2218C3.55556 30.2218 1.77778 28.444 1.77778 25.7773C1.77778 25.5416 1.68413 25.3155 1.51743 25.1488C1.35073 24.9821 1.12464 24.8885 0.888889 24.8885C0.653141 24.8885 0.427049 24.9821 0.26035 25.1488C0.0936505 25.3155 0 25.5416 0 25.7773C0 29.3329 2.66667 31.9996 6.22222 31.9996C6.45797 31.9996 6.68406 31.9059 6.85076 31.7392C7.01746 31.5725 7.11111 31.3464 7.11111 31.1107C7.11111 30.8749 7.01746 30.6488 6.85076 30.4821C6.68406 30.3154 6.45797 30.2218 6.22222 30.2218ZM21.3333 1.77734C21.0976 1.77734 20.8715 1.87099 20.7048 2.03769C20.5381 2.20439 20.4444 2.43048 20.4444 2.66623C20.4444 2.90198 20.5381 3.12807 20.7048 3.29477C20.8715 3.46147 21.0976 3.55512 21.3333 3.55512C24.8889 3.55512 28.4444 6.74534 28.4444 10.6662C28.4444 10.902 28.5381 11.1281 28.7048 11.2948C28.8715 11.4615 29.0976 11.5551 29.3333 11.5551C29.5691 11.5551 29.7952 11.4615 29.9619 11.2948C30.1286 11.1281 30.2222 10.902 30.2222 10.6662C30.2222 5.7649 26.6667 1.77734 21.3333 1.77734Z" fill="#5DADEC"/>
<path id="Vector_5" d="M25.7795 0.0371094C25.2888 0.0371094 24.8906 0.397998 24.8906 0.888665C24.8906 1.37933 25.2888 1.81489 25.7795 1.81489C28.4462 1.81489 30.1866 3.79267 30.1866 6.222C30.1866 6.71267 30.6213 7.11089 31.1128 7.11089C31.6044 7.11089 31.9644 6.71267 31.9644 6.222C31.9644 2.81133 29.3351 0.0371094 25.7795 0.0371094Z" fill="#5DADEC"/>
</g>
</g>
<defs>
<clipPath id="clip0_105_3205">
<rect width="32" height="32" fill="white"/>
</clipPath>
</defs>
</svg>
