<svg width="23" height="20" viewBox="0 0 23 20" fill="none" xmlns="http://www.w3.org/2000/svg">
<path id="vector" d="M11.5 10C10.9067 10 10.3266 10.1759 9.83329 10.5056C9.33994 10.8352 8.95542 11.3038 8.72836 11.8519C8.5013 12.4001 8.44189 13.0033 8.55764 13.5853C8.6734 14.1672 8.95912 14.7018 9.37868 15.1213C9.79824 15.5409 10.3328 15.8266 10.9147 15.9424C11.4967 16.0581 12.0999 15.9987 12.6481 15.7716C13.1962 15.5446 13.6648 15.1601 13.9944 14.6667C14.3241 14.1734 14.5 13.5933 14.5 13C14.5 12.2044 14.1839 11.4413 13.6213 10.8787C13.0587 10.3161 12.2956 10 11.5 10ZM11.5 14C11.3022 14 11.1089 13.9414 10.9444 13.8315C10.78 13.7216 10.6518 13.5654 10.5761 13.3827C10.5004 13.2 10.4806 12.9989 10.5192 12.8049C10.5578 12.6109 10.653 12.4327 10.7929 12.2929C10.9327 12.153 11.1109 12.0578 11.3049 12.0192C11.4989 11.9806 11.7 12.0004 11.8827 12.0761C12.0654 12.1518 12.2216 12.28 12.3315 12.4444C12.4414 12.6089 12.5 12.8022 12.5 13C12.5 13.2652 12.3946 13.5196 12.2071 13.7071C12.0196 13.8946 11.7652 14 11.5 14ZM10.79 7.71C10.8851 7.80104 10.9972 7.87241 11.12 7.92C11.2397 7.97291 11.3691 8.00023 11.5 8.00023C11.6309 8.00023 11.7603 7.97291 11.88 7.92C12.0028 7.87241 12.1149 7.80104 12.21 7.71L14.5 5.46C14.6936 5.26639 14.8024 5.0038 14.8024 4.73C14.8024 4.4562 14.6936 4.19361 14.5 4C14.3064 3.80639 14.0438 3.69762 13.77 3.69762C13.4962 3.69762 13.2336 3.80639 13.04 4L12.5 4.59V1C12.5 0.734784 12.3946 0.48043 12.2071 0.292893C12.0196 0.105357 11.7652 0 11.5 0C11.2348 0 10.9804 0.105357 10.7929 0.292893C10.6054 0.48043 10.5 0.734784 10.5 1V4.59L9.96 4C9.76639 3.80639 9.5038 3.69762 9.23 3.69762C8.9562 3.69762 8.69361 3.80639 8.5 4C8.30639 4.19361 8.19762 4.4562 8.19762 4.73C8.19762 5.0038 8.30639 5.26639 8.5 5.46L10.79 7.71ZM18.5 13C18.5 12.8022 18.4414 12.6089 18.3315 12.4444C18.2216 12.28 18.0654 12.1518 17.8827 12.0761C17.7 12.0004 17.4989 11.9806 17.3049 12.0192C17.1109 12.0578 16.9327 12.153 16.7929 12.2929C16.653 12.4327 16.5578 12.6109 16.5192 12.8049C16.4806 12.9989 16.5004 13.2 16.5761 13.3827C16.6518 13.5654 16.78 13.7216 16.9444 13.8315C17.1089 13.9414 17.3022 14 17.5 14C17.7652 14 18.0196 13.8946 18.2071 13.7071C18.3946 13.5196 18.5 13.2652 18.5 13ZM19.5 6H16.5C16.2348 6 15.9804 6.10536 15.7929 6.29289C15.6054 6.48043 15.5 6.73478 15.5 7C15.5 7.26522 15.6054 7.51957 15.7929 7.70711C15.9804 7.89464 16.2348 8 16.5 8H19.5C19.7652 8 20.0196 8.10536 20.2071 8.29289C20.3946 8.48043 20.5 8.73478 20.5 9V17C20.5 17.2652 20.3946 17.5196 20.2071 17.7071C20.0196 17.8946 19.7652 18 19.5 18H3.5C3.23478 18 2.98043 17.8946 2.79289 17.7071C2.60536 17.5196 2.5 17.2652 2.5 17V9C2.5 8.73478 2.60536 8.48043 2.79289 8.29289C2.98043 8.10536 3.23478 8 3.5 8H6.5C6.76522 8 7.01957 7.89464 7.20711 7.70711C7.39464 7.51957 7.5 7.26522 7.5 7C7.5 6.73478 7.39464 6.48043 7.20711 6.29289C7.01957 6.10536 6.76522 6 6.5 6H3.5C2.70435 6 1.94129 6.31607 1.37868 6.87868C0.81607 7.44129 0.5 8.20435 0.5 9V17C0.5 17.7956 0.81607 18.5587 1.37868 19.1213C1.94129 19.6839 2.70435 20 3.5 20H19.5C20.2956 20 21.0587 19.6839 21.6213 19.1213C22.1839 18.5587 22.5 17.7956 22.5 17V9C22.5 8.20435 22.1839 7.44129 21.6213 6.87868C21.0587 6.31607 20.2956 6 19.5 6ZM4.5 13C4.5 13.1978 4.55865 13.3911 4.66853 13.5556C4.77841 13.72 4.93459 13.8482 5.11732 13.9239C5.30004 13.9996 5.50111 14.0194 5.69509 13.9808C5.88907 13.9422 6.06725 13.847 6.20711 13.7071C6.34696 13.5673 6.4422 13.3891 6.48079 13.1951C6.51937 13.0011 6.49957 12.8 6.42388 12.6173C6.34819 12.4346 6.22002 12.2784 6.05557 12.1685C5.89112 12.0586 5.69778 12 5.5 12C5.23478 12 4.98043 12.1054 4.79289 12.2929C4.60536 12.4804 4.5 12.7348 4.5 13Z" fill="#9A9AAA"/>
</svg>
